<svg xmlns="http://www.w3.org/2000/svg" width="256" height="256" viewBox="0 0 256 256" shape-rendering="crispEdges" style="image-rendering:pixelated;">
  <!-- pixel size = 16 -->
  <!-- background transparent -->
  <!-- white rice pixels -->
  <rect x="112" y="48" width="16" height="16" fill="#ffffff"/>
  <rect x="128" y="48" width="16" height="16" fill="#ffffff"/>

  <rect x="96" y="64" width="16" height="16" fill="#ffffff"/>
  <rect x="112" y="64" width="16" height="16" fill="#ffffff"/>
  <rect x="128" y="64" width="16" height="16" fill="#ffffff"/>
  <rect x="144" y="64" width="16" height="16" fill="#ffffff"/>

  <rect x="80" y="80" width="16" height="16" fill="#ffffff"/>
  <rect x="96" y="80" width="16" height="16" fill="#ffffff"/>
  <rect x="112" y="80" width="16" height="16" fill="#ffffff"/>
  <rect x="128" y="80" width="16" height="16" fill="#ffffff"/>
  <rect x="144" y="80" width="16" height="16" fill="#ffffff"/>
  <rect x="160" y="80" width="16" height="16" fill="#ffffff"/>

  <rect x="64" y="96" width="16" height="16" fill="#ffffff"/>
  <rect x="80" y="96" width="16" height="16" fill="#ffffff"/>
  <rect x="96" y="96" width="16" height="16" fill="#ffffff"/>
  <rect x="112" y="96" width="16" height="16" fill="#ffffff"/>
  <rect x="128" y="96" width="16" height="16" fill="#ffffff"/>
  <rect x="144" y="96" width="16" height="16" fill="#ffffff"/>
  <rect x="160" y="96" width="16" height="16" fill="#ffffff"/>
  <rect x="176" y="96" width="16" height="16" fill="#ffffff"/>

  <rect x="48" y="112" width="16" height="16" fill="#ffffff"/>
  <rect x="64" y="112" width="16" height="16" fill="#ffffff"/>
  <rect x="80" y="112" width="16" height="16" fill="#ffffff"/>
  <rect x="96" y="112" width="16" height="16" fill="#ffffff"/>
  <rect x="112" y="112" width="16" height="16" fill="#ffffff"/>
  <rect x="128" y="112" width="16" height="16" fill="#ffffff"/>
  <rect x="144" y="112" width="16" height="16" fill="#ffffff"/>
  <rect x="160" y="112" width="16" height="16" fill="#ffffff"/>
  <rect x="176" y="112" width="16" height="16" fill="#ffffff"/>
  <rect x="192" y="112" width="16" height="16" fill="#ffffff"/>

  <rect x="48" y="128" width="16" height="16" fill="#ffffff"/>
  <rect x="64" y="128" width="16" height="16" fill="#ffffff"/>
  <rect x="80" y="128" width="16" height="16" fill="#ffffff"/>
  <rect x="96" y="128" width="16" height="16" fill="#ffffff"/>
  <rect x="112" y="128" width="16" height="16" fill="#ffffff"/>
  <rect x="128" y="128" width="16" height="16" fill="#ffffff"/>
  <rect x="144" y="128" width="16" height="16" fill="#ffffff"/>
  <rect x="160" y="128" width="16" height="16" fill="#ffffff"/>
  <rect x="176" y="128" width="16" height="16" fill="#ffffff"/>
  <rect x="192" y="128" width="16" height="16" fill="#ffffff"/>

  <rect x="64" y="144" width="16" height="16" fill="#ffffff"/>
  <rect x="80" y="144" width="16" height="16" fill="#ffffff"/>
  <rect x="96" y="144" width="16" height="16" fill="#ffffff"/>
  <rect x="112" y="144" width="16" height="16" fill="#ffffff"/>
  <rect x="128" y="144" width="16" height="16" fill="#ffffff"/>
  <rect x="144" y="144" width="16" height="16" fill="#ffffff"/>
  <rect x="160" y="144" width="16" height="16" fill="#ffffff"/>
  <rect x="176" y="144" width="16" height="16" fill="#ffffff"/>

  <rect x="80" y="160" width="16" height="16" fill="#ffffff"/>
  <rect x="96" y="160" width="16" height="16" fill="#ffffff"/>
  <rect x="112" y="160" width="16" height="16" fill="#ffffff"/>
  <rect x="128" y="160" width="16" height="16" fill="#ffffff"/>
  <rect x="144" y="160" width="16" height="16" fill="#ffffff"/>
  <rect x="160" y="160" width="16" height="16" fill="#ffffff"/>

  <!-- nori (seaweed) black band on lower center -->

  <rect x="96" y="176" width="16" height="16" fill="#111111"/>
  <rect x="112" y="176" width="16" height="16" fill="#111111"/>
  <rect x="128" y="176" width="16" height="16" fill="#111111"/>
  <rect x="144" y="176" width="16" height="16" fill="#111111"/>

  <rect x="96" y="192" width="16" height="16" fill="#111111"/>
  <rect x="112" y="192" width="16" height="16" fill="#111111"/>
  <rect x="128" y="192" width="16" height="16" fill="#111111"/>
  <rect x="144" y="192" width="16" height="16" fill="#111111"/>

  <!-- light gray outline pixels for a chibi/pixel-border -->
  <rect x="112" y="32" width="16" height="16" fill="#d1d1d1"/>
  <rect x="96" y="48" width="16" height="16" fill="#d1d1d1"/>
  <rect x="144" y="48" width="16" height="16" fill="#d1d1d1"/>
  <rect x="80" y="64" width="16" height="16" fill="#d1d1d1"/>
  <rect x="160" y="64" width="16" height="16" fill="#d1d1d1"/>
  <rect x="64" y="80" width="16" height="16" fill="#d1d1d1"/>
  <rect x="176" y="80" width="16" height="16" fill="#d1d1d1"/>
  <rect x="48" y="96" width="16" height="16" fill="#d1d1d1"/>
  <rect x="192" y="96" width="16" height="16" fill="#d1d1d1"/>
  <rect x="48" y="112" width="16" height="16" fill="#d1d1d1"/>
  <rect x="208" y="112" width="16" height="16" fill="#d1d1d1"/>
  <rect x="64" y="144" width="16" height="16" fill="#d1d1d1" opacity="0.7"/>
  <rect x="176" y="144" width="16" height="16" fill="#d1d1d1" opacity="0.7"/>
</svg>
